# xmcd
# 
# Track frame offsets:
#     150
#     17225
#     34562
#     46267
#     57190
#     73180
#     89637
#     109075
#     125185
#     144615
#     160282
#     177517
#     194450
#     211440
#     227375
#     245157
#     261687
#     281505
#     293340
#     311660
# 
# Disc length: 4358
# 
# Revision: 7
# Processed by: cddbd v1.5.2PL0 Copyright (c) Steve Scherf et al.
# Submitted via: BonkEnc v1.0.8
# 
DISCID=38110414
DTITLE=Originais Cover - Anos 70's - O Som dos Grandes Amores
DYEAR=2000
DGENRE=Pop
TTITLE0=When A Man Loves A Woman
TTITLE1=Skyline Pigeon
TTITLE2=The End
TTITLE3=Teach Me Tiger
TTITLE4=Reaching Out
TTITLE5=Tornero
TTITLE6=Jet'Aime Moi Non Plus
TTITLE7=I Don't Want To Go Without
TTITLE8=Flying
TTITLE9=Don't Forget
TTITLE10=Love Hurts
TTITLE11=Patrick Amor Mio
TTITLE12=Why We Can't Live Together
TTITLE13=Sweet Memory
TTITLE14=There No More Corn On The Brasos
TTITLE15=The Guitar Man
TTITLE16=Crimson And Clover
TTITLE17=Have You Ever Seen The Rain
TTITLE18=A Whiter Shade Of Pale
TTITLE19=Long As I Can See The Light
EXTD=YEAR: 2000
EXTT0=
EXTT1=
EXTT2=
EXTT3=
EXTT4=
EXTT5=
EXTT6=
EXTT7=
EXTT8=
EXTT9=
EXTT10=
EXTT11=
EXTT12=
EXTT13=
EXTT14=
EXTT15=
EXTT16=
EXTT17=
EXTT18=
EXTT19=
PLAYORDER=
